#!OML:ASF H:\Pregnant\Project 1\Capture day 1\Session 1\femalepreg.ASF
:FULLY-SPECIFIED
:DEGREES
1616
root 7.81739 20.3514 3.70667 -341.05 -55.5271 3.88472
lowerback -14.705 2.67573 3.86497
upperback -6.42802 2.87571 -1.46799
thorax 1.70032 1.27734 -3.25994
lowerneck -20.3243 3.62624 2.70211
upperneck 31.2948 5.18816 -3.24626
head 14.3075 1.98161 -0.868393
rclavicle -1.30452e-014 1.63003e-014
rhumerus -33.6109 -3.23366 -73.9731
rradius 34.5597
rwrist -6.91199
rhand -18.4012 -17.3656
rfingers 7.12502
rthumb 7.88309 -47.1986
lclavicle -1.30452e-014 1.63003e-014
lhumerus -39.8821 -0.602962 78.3118
lradius 28.1355
lwrist 43.6541
lhand -28.3656 -0.130013
lfingers 7.12502
lthumb -1.73904 29.8426
rfemur -41.4865 21.5029 11.5138
rtibia 41.962
rfoot -18.2281 -11.5838
rtoes -10.3696
lfemur -39.2649 -18.576 -15.611
ltibia 19.9551
lfoot -15.4409 -13.7223
ltoes -39.2015
1617
root 7.81359 20.3552 3.6722 -340.748 -54.8415 3.67251
lowerback -14.6781 2.66803 4.03801
upperback -6.46155 2.84169 -1.3555
thorax 1.64929 1.25779 -3.24676
lowerneck -20.3532 3.60145 2.63377
upperneck 31.4108 5.19777 -3.29091
head 14.3653 1.96928 -0.873271
rclavicle 5.49143e-014 -2.38542e-015
rhumerus -33.3731 -3.02041 -73.9998
rradius 34.7225
rwrist -6.91916
rhand -18.3118 -17.287
rfingers 7.12502
rthumb 7.96939 -47.1168
lclavicle 5.49143e-014 -2.38542e-015
lhumerus -40.0474 -0.394935 78.4648
lradius 27.8035
lwrist 43.4667
lhand -28.2525 -0.0241164
lfingers 7.12502
lthumb -1.62978 29.9494
rfemur -41.4334 21.164 11.8558
rtibia 41.8094
rfoot -18.1033 -11.7765
rtoes -10.2925
lfemur -39.5771 -18.5143 -15.3771
ltibia 20.1024
lfoot -15.4105 -12.3444
ltoes -39.4665
1618
root 7.80961 20.3588 3.6376 -340.46 -54.1548 3.46056
lowerback -14.6461 2.65826 4.19797
upperback -6.49152 2.80717 -1.23972
thorax 1.59842 1.23828 -3.22285
lowerneck -20.3865 3.57625 2.57176
upperneck 31.5266 5.20234 -3.32892
head 14.4241 1.95646 -0.877441
rclavicle -2.48481e-014 -3.57812e-014
rhumerus -33.1458 -2.83081 -74.0099
rradius 34.8843
rwrist -6.93449
rhand -18.2358 -17.2166
rfingers 7.12502
rthumb 8.04276 -47.0436
lclavicle -2.48481e-014 -3.57812e-014
lhumerus -40.2078 -0.222259 78.6361
lradius 27.4811
lwrist 43.3189
lhand -28.1348 0.0812358
lfingers 7.12502
lthumb -1.51609 30.0556
rfemur -41.372 20.8307 12.2072
rtibia 41.6571
rfoot -17.9803 -11.9759
rtoes -10.2155
lfemur -39.8631 -18.3621 -15.2032
ltibia 20.2576
lfoot -15.3171 -10.9037
ltoes -39.7045
1619
root 7.80542 20.3619 3.60286 -340.182 -53.468 3.24619
lowerback -14.6089 2.64637 4.34643
upperback -6.51735 2.77186 -1.12069
thorax 1.54842 1.21868 -3.18922
lowerneck -20.4247 3.55173 2.52111
upperneck 31.6407 5.20315 -3.36489
head 14.4835 1.94369 -0.883382
rclavicle 1.97045e-014 -1.90833e-014
rhumerus -32.9285 -2.66181 -74.0071
rradius 35.0448
rwrist -6.96385
rhand -18.1762 -17.1569
rfingers 7.12502
rthumb 8.1003 -46.9816
lclavicle 1.97045e-014 -1.90833e-014
lhumerus -40.3634 -0.0861956 78.8244
lradius 27.1718
lwrist 43.208
lhand -28.009 0.178359
lfingers 7.12502
lthumb -1.39464 30.1535
rfemur -41.3013 20.5053 12.569
rtibia 41.5041
rfoot -17.8569 -12.1821
rtoes -10.1417
lfemur -40.1244 -18.1234 -15.0881
ltibia 20.4257
lfoot -15.1561 -9.38764
ltoes -39.9215
1620
root 7.80099 20.3645 3.56809 -339.916 -52.7815 3.02782
lowerback -14.5665 2.63367 4.48799
upperback -6.53844 2.73702 -1.00199
thorax 1.50039 1.19958 -3.15198
lowerneck -20.4693 3.52784 2.48847
upperneck 31.7528 5.19807 -3.40021
head 14.544 1.93069 -0.89318
rclavicle 8.26447e-014 4.33351e-014
rhumerus -32.7222 -2.51667 -73.9965
rradius 35.2037
rwrist -7.00823
rhand -18.1358 -17.1103
rfingers 7.12502
rthumb 8.13928 -46.9335
lclavicle 8.26447e-014 4.33351e-014
lhumerus -40.5119 0.00930375 79.0242
lradius 26.8769
lwrist 43.121
lhand -27.8633 0.272413
lfingers 7.12502
lthumb -1.25384 30.2485
rfemur -41.2206 20.1888 12.9414
rtibia 41.3503
rfoot -17.7325 -12.3943
rtoes -10.0704
lfemur -40.3615 -17.8044 -15.0301
ltibia 20.6092
lfoot -14.9217 -7.79209
ltoes -40.1178
1621
root 7.79636 20.3667 3.53344 -339.663 -52.0967 2.80737
lowerback -14.5192 2.62209 4.62541
upperback -6.55498 2.70495 -0.887989
thorax 1.45477 1.18205 -3.1169
lowerneck -20.5194 3.50325 2.47704
upperneck 31.862 5.18362 -3.43422
head 14.6048 1.91654 -0.907789
rclavicle -3.13086e-014 -1.03368e-014
rhumerus -32.5293 -2.40154 -73.9818
rradius 35.3595
rwrist -7.06373
rhand -18.1129 -17.0747
rfingers 7.12502
rthumb 8.16137 -46.8971
lclavicle -3.13086e-014 -1.03368e-014
lhumerus -40.6502 0.060675 79.2299
lradius 26.5954
lwrist 43.0387
lhand -27.6825 0.380708
lfingers 7.12502
lthumb -1.07929 30.3577
rfemur -41.1301 19.8809 13.3221
rtibia 41.1962
rfoot -17.6067 -12.6102
rtoes -9.99852
lfemur -40.5755 -17.4135 -15.027
ltibia 20.8089
lfoot -14.6082 -6.12289
ltoes -40.2867
1622
root 7.79152 20.3685 3.49913 -339.423 -51.4137 2.58625
lowerback -14.4672 2.61267 4.76114
upperback -6.56746 2.67673 -0.780943
thorax 1.41153 1.16653 -3.08757
lowerneck -20.569 3.47627 2.48288
upperneck 31.9659 5.15706 -3.46252
head 14.6632 1.90039 -0.925308
rclavicle -4.11484e-014 3.69739e-014
rhumerus -32.3522 -2.31937 -73.9638
rradius 35.5104
rwrist -7.12558
rhand -18.1147 -17.0538
rfingers 7.12502
rthumb 8.15964 -46.8762
lclavicle -4.11484e-014 3.69739e-014
lhumerus -40.7777 0.0709092 79.4366
lradius 26.3269
lwrist 42.9397
lhand -27.4523 0.528951
lfingers 7.12502
lthumb -0.856953 30.507
rfemur -41.0292 19.5813 13.7094
rtibia 41.042
rfoot -17.48 -12.8285
rtoes -9.9214
lfemur -40.7675 -16.9617 -15.074
ltibia 21.0256
lfoot -14.2125 -4.39378
ltoes -40.4253
1623
root 7.78649 20.3699 3.46537 -339.199 -50.7334 2.36564
lowerback -14.4111 2.6073 4.89727
upperback -6.57597 2.65466 -0.683412
thorax 1.37115 1.15414 -3.06747
lowerneck -20.6128 3.4444 2.50055
upperneck 32.0622 5.11444 -3.47917
head 14.7163 1.88089 -0.943164
rclavicle -1.70209e-014 2.14687e-014
rhumerus -32.1937 -2.27603 -73.9428
rradius 35.6545
rwrist -7.18737
rhand -18.1432 -17.048
rfingers 7.12502
rthumb 8.1321 -46.8715
lclavicle -1.70209e-014 2.14687e-014
lhumerus -40.8936 0.0411803 79.6409
lradius 26.0717
lwrist 42.8076
lhand -27.1642 0.735268
lfingers 7.12502
lthumb -0.578698 30.7142
rfemur -40.9165 19.2902 14.1015
rtibia 40.8873
rfoot -17.3533 -13.0477
rtoes -9.83301
lfemur -40.9384 -16.4581 -15.1669
ltibia 21.261
lfoot -13.7356 -2.62691
ltoes -40.535
1624
root 7.78126 20.371 3.4324 -338.992 -50.0564 2.14538
lowerback -14.3523 2.60744 5.03652
upperback -6.57946 2.64028 -0.597272
thorax 1.33589 1.14564 -3.05978
lowerneck -20.6475 3.4059 2.52537
upperneck 32.1492 5.05299 -3.47905
head 14.762 1.85714 -0.958968
rclavicle -7.20594e-015 -3.18055e-015
rhumerus -32.0541 -2.27689 -73.9191
rradius 35.7899
rwrist -7.24393
rhand -18.2017 -17.0591
rfingers 7.12502
rthumb 8.07569 -46.8848
lclavicle -7.20594e-015 -3.18055e-015
lhumerus -40.997 -0.029233 79.8416
lradius 25.832
lwrist 42.6368
lhand -26.8188 1.00303
lfingers 7.12502
lthumb -0.245031 30.9826
rfemur -40.7898 19.0086 14.4975
rtibia 40.7309
rfoot -17.2272 -13.2679
rtoes -9.73095
lfemur -41.0898 -15.9092 -15.3013
ltibia 21.5186
lfoot -13.1831 -0.848387
ltoes -40.625
1625
root 7.77582 20.3718 3.4004 -338.802 -49.3823 1.92585
lowerback -14.2934 2.61328 5.18036
upperback -6.57596 2.63347 -0.523172
thorax 1.30928 1.14112 -3.06594
lowerneck -20.6739 3.36054 2.55406
upperneck 32.2263 4.97252 -3.45934
head 14.8 1.82908 -0.970978
rclavicle 1.29235e-013 1.27222e-014
rhumerus -31.9308 -2.32547 -73.8931
rradius 35.9137
rwrist -7.29079
rhand -18.2864 -17.0839
rfingers 7.12502
rthumb 7.99387 -46.9127
lclavicle 1.29235e-013 1.27222e-014
lhumerus -41.0867 -0.141068 80.0399
lradius 25.6116
lwrist 42.4318
lhand -26.4227 1.32096
lfingers 7.12502
lthumb 0.137497 31.3007
rfemur -40.6471 18.7368 14.8965
rtibia 40.5713
rfoot -17.1024 -13.4905
rtoes -9.61585
lfemur -41.224 -15.3164 -15.4762
ltibia 21.8045
lfoot -12.5677 0.910377
ltoes -40.7055
1626
root 7.77018 20.3724 3.36949 -338.628 -48.7103 1.70693
lowerback -14.2378 2.62439 5.33029
upperback -6.56278 2.63324 -0.461636
thorax 1.29595 1.14023 -3.08732
lowerneck -20.6997 3.30936 2.58767
upperneck 32.2958 4.87407 -3.41982
head 14.8331 1.7972 -0.97898
rclavicle 4.18193e-014 6.36111e-015
rhumerus -31.8187 -2.42519 -73.8664
rradius 36.0232
rwrist -7.32418
rhand -18.3909 -17.1179
rfingers 7.12502
rthumb 7.89303 -46.9505
lclavicle 4.18193e-014 6.36111e-015
lhumerus -41.1599 -0.298713 80.2386
lradius 25.4141
lwrist 42.2062
lhand -25.987 1.66436
lfingers 7.12502
lthumb 0.558326 31.6434
rfemur -40.4871 18.4747 15.2979
rtibia 40.4071
rfoot -16.9793 -13.7177
rtoes -9.49181
lfemur -41.3444 -14.6747 -15.6942
ltibia 22.1263
lfoot -11.9092 2.61708
ltoes -40.7858
1627
root 7.76434 20.3728 3.33971 -338.47 -48.04 1.48959
lowerback -14.1892 2.63858 5.48358
upperback -6.5387 2.63664 -0.409724
thorax 1.2987 1.14173 -3.11965
lowerneck -20.7317 3.25473 2.625
upperneck 32.3607 4.76267 -3.36347
head 14.8645 1.7629 -0.982977
rclavicle -8.81113e-014 -2.70347e-014
rhumerus -31.7124 -2.57179 -73.8385
rradius 36.1159
rwrist -7.34262
rhand -18.5017 -17.1526
rfingers 7.12502
rthumb 7.78614 -46.9892
lclavicle -8.81113e-014 -2.70347e-014
lhumerus -41.2162 -0.50004 80.4424
lradius 25.2425
lwrist 41.9742
lhand -25.5256 1.9994
lfingers 7.12502
lthumb 1.00395 31.9768
rfemur -40.3115 18.2212 15.7005
rtibia 40.2376
rfoot -16.8586 -13.9502
rtoes -9.36308
lfemur -41.4553 -13.9747 -15.9606
ltibia 22.4921
lfoot -11.2339 4.23973
ltoes -40.8609
1628
root 7.7583 20.3732 3.31105 -338.325 -47.3712 1.27446
lowerback -14.1511 2.65246 5.63582
upperback -6.50394 2.63922 -0.362151
thorax 1.31832 1.14354 -3.1555
lowerneck -20.7755 3.19947 2.66253
upperneck 32.4246 4.64501 -3.29358
head 14.8974 1.72798 -0.982423
rclavicle 5.53118e-014 -2.38542e-015
rhumerus -31.6074 -2.75408 -73.8078
rradius 36.1896
rwrist -7.34754
rhand -18.6096 -17.1821
rfingers 7.12502
rthumb 7.68195 -47.0225
lclavicle 5.53118e-014 -2.38542e-015
lhumerus -41.257 -0.735647 80.6548
lradius 25.0988
lwrist 41.7453
lhand -25.0499 2.2967
lfingers 7.12502
lthumb 1.46341 32.2714
rfemur -40.1232 17.975 16.103
rtibia 40.0632
rfoot -16.7409 -14.1886
rtoes -9.23272
lfemur -41.5613 -13.207 -16.2809
ltibia 22.9091
lfoot -10.5714 5.75447
ltoes -40.9189
1629
root 7.75204 20.3736 3.2834 -338.191 -46.7047 1.06367
lowerback -14.1257 2.66252 5.77903
upperback -6.46137 2.63684 -0.312197
thorax 1.35211 1.14368 -3.18397
lowerneck -20.8307 3.14569 2.69448
upperneck 32.4905 4.52842 -3.21559
head 14.9336 1.69395 -0.97723
rclavicle 2.86747e-014 0
rhumerus -31.5029 -2.95752 -73.7704
rradius 36.2434
rwrist -7.34074
rhand -18.6993 -17.1958
rfingers 7.12502
rthumb 7.59537 -47.0394
lclavicle 2.86747e-014 0
lhumerus -41.2864 -0.99152 80.8791
lradius 24.9824
lwrist 41.5216
lhand -24.5711 2.53284
lfingers 7.12502
lthumb 1.92577 32.5039
rfemur -39.9277 17.7337 16.5032
rtibia 39.8852
rfoot -16.6272 -14.4311
rtoes -9.10121
lfemur -41.6671 -12.3639 -16.6597
ltibia 23.3817
lfoot -9.9532 7.14215
ltoes -40.9361
1630
root 7.74551 20.374 3.25668 -338.064 -46.0419 0.859182
lowerback -14.1145 2.66669 5.90707
upperback -6.41503 2.62719 -0.255445
thorax 1.39586 1.1409 -3.19738
lowerneck -20.8912 3.0936 2.71344
upperneck 32.5594 4.41662 -3.13101
head 14.9722 1.66123 -0.966132
rclavicle 2.28602e-015 -1.11319e-014
rhumerus -31.4016 -3.17018 -73.7234
rradius 36.2769
rwrist -7.32711
rhand -18.7687 -17.1927
rfingers 7.12502
rthumb 7.52838 -47.0387
lclavicle 2.28602e-015 -1.11319e-014
lhumerus -41.309 -1.25364 81.1143
lradius 24.8927
lwrist 41.3001
lhand -24.0937 2.70741
lfingers 7.12502
lthumb 2.38685 32.6738
rfemur -39.7304 17.4951 16.8989
rtibia 39.7056
rfoot -16.5188 -14.6756
rtoes -8.96797
lfemur -41.7766 -11.4467 -17.096
ltibia 23.911
lfoot -9.40449 8.39726
ltoes -40.8892
